<svg width="831" height="712" viewBox="0 0 831 712" fill="none" xmlns="http://www.w3.org/2000/svg">
<rect width="831" height="712" fill="#1E1E1E"/>
<g id="undraw_mobile_messages_re_yx8w 1" clip-path="url(#clip0_0_1)">
<g id="message2">
<path id="Vector" d="M145 353H531.652V479.931H517.006V513.128L483.809 479.931H145V353Z" fill="#E6E6E6"/>
<path id="Vector_2" d="M520.912 365.36H155.74V466.906H520.912V365.36Z" fill="white"/>
<path id="Vector_3" d="M360.926 395.007H185.105V400.343H360.926V395.007Z" fill="#4956B5"/>
<path id="Vector_4" d="M491.546 413.465H185.105V418.801H491.546V413.465Z" fill="#E6E6E6"/>
<path id="Vector_5" d="M491.246 431.923H185.105V437.259H491.246V431.923Z" fill="#E6E6E6"/>
</g>
<g id="message2_2">
<path id="Vector_6" d="M389.652 518H3V644.932H17.646V678.129L50.843 644.932H389.652V518Z" fill="#E6E6E6"/>
<path id="Vector_7" d="M378.912 530.361H13.7404V631.906H378.912V530.361Z" fill="white"/>
<path id="Vector_8" d="M221.856 560.984H46.0349V566.32H221.856V560.984Z" fill="#4956B5"/>
<path id="Vector_9" d="M352.476 579.442H46.0349V584.778H352.476V579.442Z" fill="#E6E6E6"/>
<path id="Vector_10" d="M352.176 597.9H46.0349V603.236H352.176V597.9Z" fill="#E6E6E6"/>
</g>
<g id="message1">
<path id="Vector_11" d="M378.652 184H-8V310.931H6.646V344.129L39.843 310.931H378.652V184Z" fill="#E6E6E6"/>
<path id="Vector_12" d="M367.912 196.361H2.74036V297.906H367.912V196.361Z" fill="white"/>
<path id="Vector_13" d="M210.856 226.984H35.0349V232.32H210.856V226.984Z" fill="#4956B5"/>
<path id="Vector_14" d="M341.476 245.442H35.0349V250.778H341.476V245.442Z" fill="#E6E6E6"/>
<path id="Vector_15" d="M341.176 263.9H35.0349V269.236H341.176V263.9Z" fill="#E6E6E6"/>
</g>
<g id="person">
<path id="Vector_16" d="M733.795 693.865L717.882 693.864L710.311 632.481L733.798 632.483L733.795 693.865Z" fill="#FFB8B8"/>
<path id="Vector_17" d="M737.854 709.291L686.541 709.289V708.64C686.541 703.343 688.646 698.263 692.391 694.518C696.137 690.772 701.217 688.668 706.513 688.668H706.515L737.855 688.669L737.854 709.291Z" fill="#2F2E41"/>
<path id="Vector_18" d="M711.42 647.714L696.612 653.541L667.089 599.195L688.945 590.595L711.42 647.714Z" fill="#FFB8B8"/>
<path id="Vector_19" d="M720.846 660.582L673.096 679.371L672.859 678.767C670.919 673.838 671.017 668.341 673.131 663.484C675.245 658.627 679.201 654.808 684.13 652.869L684.131 652.868L713.295 641.393L720.846 660.582Z" fill="#2F2E41"/>
<path id="Vector_20" d="M706.57 673.92L711.638 487.695L689.089 567.528L705.381 622.921L678.352 645.896L650.8 557.991L650.751 557.836L678.136 413.089L759.127 409.171L759.706 409.141L759.799 409.714C759.877 410.196 767.531 458.256 761.094 493.012C754.683 527.635 739.19 674.508 739.035 675.988L738.968 676.62L706.57 673.92Z" fill="#2F2E41"/>
<path id="Vector_21" d="M682.332 424.699L681.874 424.517L696.904 286.632L697.343 286.523C712.618 282.703 733.198 283.037 744.107 283.575C745.761 283.661 747.335 284.313 748.564 285.423C749.793 286.532 750.602 288.031 750.855 289.668L768.925 408.68L768.776 408.893C756.284 426.739 737.195 431.59 720.127 431.59C707.232 431.425 694.456 429.095 682.332 424.699Z" fill="#4956B5"/>
<path id="Vector_22" d="M753.907 464.983L753.364 464.934L743.765 283.219L772.935 289.807C776.121 290.537 778.923 292.426 780.794 295.107C782.665 297.787 783.473 301.068 783.061 304.311L779.278 334.516L780.574 387.655C781.477 390.919 796.247 444.99 788.041 459.079C787.627 459.877 787.052 460.582 786.353 461.148C785.654 461.714 784.846 462.131 783.979 462.371C776.1 464.264 768.024 465.209 759.921 465.186C756.238 465.185 753.964 464.988 753.907 464.983Z" fill="#3F3D56"/>
<path id="Vector_23" d="M668.004 466.215C666.585 465.58 665.329 464.632 664.328 463.443C663.328 462.254 662.608 460.854 662.224 459.349C660.323 451.696 666.74 442.072 667.666 440.736L675.428 367.003L663.883 298.888C663.685 297.723 663.728 296.53 664.008 295.382C664.287 294.234 664.798 293.155 665.51 292.212C666.221 291.268 667.117 290.48 668.144 289.895C669.171 289.31 670.306 288.94 671.48 288.809L704.364 285.142L702.695 355.214C716.809 402.919 686.072 471.703 685.76 472.393L685.587 472.774H685.169C685.003 472.774 680.972 472.699 668.004 466.215Z" fill="#3F3D56"/>
<path id="Vector_24" d="M735.575 267.242C751.025 258.796 756.703 239.425 748.257 223.975C739.812 208.525 720.44 202.847 704.99 211.292C689.54 219.738 683.862 239.109 692.308 254.559C700.754 270.009 720.125 275.687 735.575 267.242Z" fill="#FFB8B8"/>
<path id="Vector_25" d="M756.789 432.097C756.502 430.341 756.604 428.543 757.087 426.831C757.571 425.118 758.424 423.532 759.586 422.185C760.748 420.838 762.192 419.762 763.815 419.033C765.438 418.304 767.202 417.939 768.981 417.966L780.016 392.434L797.168 395.355L781.077 431.193C780.835 434.179 779.506 436.972 777.342 439.044C775.178 441.116 772.329 442.322 769.335 442.433C766.341 442.545 763.41 441.554 761.098 439.649C758.786 437.744 757.253 435.057 756.789 432.097Z" fill="#FFB8B8"/>
<path id="Vector_26" d="M772.327 408.702L781.44 354.025L765.874 328.082L769.84 291.07L770.722 290.849C773.674 290.12 776.787 290.428 779.538 291.722C782.29 293.016 784.513 295.216 785.834 297.954L811.262 351.02L811.363 351.232L792.895 423.786L772.327 408.702Z" fill="#3F3D56"/>
<path id="Vector_27" d="M741.179 264.976C741.907 265.187 744.967 261.731 748.317 257.589C751.837 253.271 754.377 248.24 755.762 242.844C757.146 237.448 757.343 231.816 756.337 226.337C756.291 226.09 756.244 225.856 756.198 225.636C755.088 220.356 750.051 215.492 744.773 216.61C745.172 211.932 742.021 207.527 738.028 205.057C734.035 202.588 729.303 201.673 724.69 200.802C719.426 199.809 714.097 198.811 708.752 199.15C703.597 199.467 698.602 201.062 694.218 203.792C688.893 207.295 684.791 212.369 682.482 218.31C680.173 224.25 679.771 230.763 681.332 236.942C688.05 229.314 696.01 221.017 707.515 224.323C710.12 225.099 712.551 226.37 714.674 228.067C721.667 233.56 725.183 241.647 728.583 249.551C730.282 245.226 736.583 243.599 740.164 246.56C742.462 248.461 743.408 251.622 743.321 254.604C743.082 257.581 742.394 260.506 741.279 263.278" fill="#2F2E41"/>
<g id="ArmWithPhone">
<path id="Vector_28" d="M737.068 384.083H735.568V378.181C735.566 376.432 734.87 374.754 733.633 373.517C732.396 372.28 730.718 371.584 728.969 371.583H710.166C708.417 371.584 706.74 372.28 705.502 373.517C704.265 374.754 703.57 376.432 703.568 378.181V418.984C703.57 420.733 704.265 422.411 705.502 423.648C706.74 424.885 708.417 425.581 710.166 425.582H728.969C730.718 425.581 732.396 424.885 733.633 423.648C734.87 422.411 735.566 420.733 735.568 418.984V391.083H737.068V384.083Z" fill="#2F2E41"/>
<path id="Vector_29" d="M720.068 395.082C722.277 395.082 724.068 393.292 724.068 391.082C724.068 388.873 722.277 387.082 720.068 387.082C717.858 387.082 716.068 388.873 716.068 391.082C716.068 393.292 717.858 395.082 720.068 395.082Z" fill="white"/>
<path id="Vector_30" d="M723.332 407.021C722.571 405.412 721.467 403.99 720.097 402.854C718.727 401.719 717.124 400.897 715.403 400.448C713.681 399.999 711.881 399.932 710.131 400.254C708.381 400.575 706.723 401.276 705.273 402.308L681.694 387.552L669.233 399.694L702.823 420.064C704.717 422.384 707.397 423.93 710.355 424.407C713.312 424.884 716.342 424.259 718.87 422.652C721.398 421.044 723.249 418.565 724.071 415.684C724.893 412.803 724.63 409.721 723.332 407.021Z" fill="#FFB8B8"/>
<path id="Vector_31" d="M639 378.912L660.575 297.407C661.143 295.301 662.479 293.484 664.32 292.314C666.161 291.144 668.373 290.706 670.521 291.087L677.938 292.435L685.843 335.908L669.767 372.551L698.846 390.009L694.757 422.72L639 378.912Z" fill="#3F3D56"/>
</g>
</g>
<path id="Vector_32" d="M829.567 711.727H448.567C448.302 711.727 448.047 711.622 447.86 711.435C447.672 711.247 447.567 710.993 447.567 710.727C447.567 710.462 447.672 710.208 447.86 710.02C448.047 709.833 448.302 709.727 448.567 709.727H829.567C829.832 709.727 830.086 709.833 830.274 710.02C830.461 710.208 830.567 710.462 830.567 710.727C830.567 710.993 830.461 711.247 830.274 711.435C830.086 711.622 829.832 711.727 829.567 711.727Z" fill="#3F3D56"/>
<g id="Let&#226;&#128;&#153;s Connect" filter="url(#filter0_d_0_1)">
<path d="M160.378 101.288H175.162V110H149.092V63.668H160.378V101.288ZM215.261 90.992C215.261 92.048 215.195 93.148 215.063 94.292H189.521C189.697 96.58 190.423 98.34 191.699 99.572C193.019 100.76 194.625 101.354 196.517 101.354C199.333 101.354 201.291 100.166 202.391 97.79H214.403C213.787 100.21 212.665 102.388 211.037 104.324C209.453 106.26 207.451 107.778 205.031 108.878C202.611 109.978 199.905 110.528 196.913 110.528C193.305 110.528 190.093 109.758 187.277 108.218C184.461 106.678 182.261 104.478 180.677 101.618C179.093 98.758 178.301 95.414 178.301 91.586C178.301 87.758 179.071 84.414 180.611 81.554C182.195 78.694 184.395 76.494 187.211 74.954C190.027 73.414 193.261 72.644 196.913 72.644C200.477 72.644 203.645 73.392 206.417 74.888C209.189 76.384 211.345 78.518 212.885 81.29C214.469 84.062 215.261 87.296 215.261 90.992ZM203.711 88.022C203.711 86.086 203.051 84.546 201.731 83.402C200.411 82.258 198.761 81.686 196.781 81.686C194.889 81.686 193.283 82.236 191.963 83.336C190.687 84.436 189.895 85.998 189.587 88.022H203.711ZM241.741 100.43V110H235.999C231.907 110 228.717 109.01 226.429 107.03C224.141 105.006 222.997 101.728 222.997 97.196V82.544H218.509V73.172H222.997V64.196H234.283V73.172H241.675V82.544H234.283V97.328C234.283 98.428 234.547 99.22 235.075 99.704C235.603 100.188 236.483 100.43 237.715 100.43H241.741ZM250.602 63.668H262.152L254.76 81.356H247.17L250.602 63.668ZM283.763 110.528C280.551 110.528 277.691 109.978 275.183 108.878C272.675 107.778 270.695 106.282 269.243 104.39C267.791 102.454 266.977 100.298 266.801 97.922H277.955C278.087 99.198 278.681 100.232 279.737 101.024C280.793 101.816 282.091 102.212 283.631 102.212C285.039 102.212 286.117 101.948 286.865 101.42C287.657 100.848 288.053 100.122 288.053 99.242C288.053 98.186 287.503 97.416 286.403 96.932C285.303 96.404 283.521 95.832 281.057 95.216C278.417 94.6 276.217 93.962 274.457 93.302C272.697 92.598 271.179 91.52 269.903 90.068C268.627 88.572 267.989 86.57 267.989 84.062C267.989 81.95 268.561 80.036 269.705 78.32C270.893 76.56 272.609 75.174 274.853 74.162C277.141 73.15 279.847 72.644 282.971 72.644C287.591 72.644 291.221 73.788 293.861 76.076C296.545 78.364 298.085 81.4 298.481 85.184H288.053C287.877 83.908 287.305 82.896 286.337 82.148C285.413 81.4 284.181 81.026 282.641 81.026C281.321 81.026 280.309 81.29 279.605 81.818C278.901 82.302 278.549 82.984 278.549 83.864C278.549 84.92 279.099 85.712 280.199 86.24C281.343 86.768 283.103 87.296 285.479 87.824C288.207 88.528 290.429 89.232 292.145 89.936C293.861 90.596 295.357 91.696 296.633 93.236C297.953 94.732 298.635 96.756 298.679 99.308C298.679 101.464 298.063 103.4 296.831 105.116C295.643 106.788 293.905 108.108 291.617 109.076C289.373 110.044 286.755 110.528 283.763 110.528ZM317.657 86.768C317.657 82.192 318.647 78.122 320.627 74.558C322.607 70.95 325.357 68.156 328.877 66.176C332.441 64.152 336.467 63.14 340.955 63.14C346.455 63.14 351.163 64.592 355.079 67.496C358.995 70.4 361.613 74.36 362.933 79.376H350.525C349.601 77.44 348.281 75.966 346.565 74.954C344.893 73.942 342.979 73.436 340.823 73.436C337.347 73.436 334.531 74.646 332.375 77.066C330.219 79.486 329.141 82.72 329.141 86.768C329.141 90.816 330.219 94.05 332.375 96.47C334.531 98.89 337.347 100.1 340.823 100.1C342.979 100.1 344.893 99.594 346.565 98.582C348.281 97.57 349.601 96.096 350.525 94.16H362.933C361.613 99.176 358.995 103.136 355.079 106.04C351.163 108.9 346.455 110.33 340.955 110.33C336.467 110.33 332.441 109.34 328.877 107.36C325.357 105.336 322.607 102.542 320.627 98.978C318.647 95.414 317.657 91.344 317.657 86.768ZM386.608 110.528C383 110.528 379.744 109.758 376.84 108.218C373.98 106.678 371.714 104.478 370.042 101.618C368.414 98.758 367.6 95.414 367.6 91.586C367.6 87.802 368.436 84.48 370.108 81.62C371.78 78.716 374.068 76.494 376.972 74.954C379.876 73.414 383.132 72.644 386.74 72.644C390.348 72.644 393.604 73.414 396.508 74.954C399.412 76.494 401.7 78.716 403.372 81.62C405.044 84.48 405.88 87.802 405.88 91.586C405.88 95.37 405.022 98.714 403.306 101.618C401.634 104.478 399.324 106.678 396.376 108.218C393.472 109.758 390.216 110.528 386.608 110.528ZM386.608 100.76C388.764 100.76 390.59 99.968 392.086 98.384C393.626 96.8 394.396 94.534 394.396 91.586C394.396 88.638 393.648 86.372 392.152 84.788C390.7 83.204 388.896 82.412 386.74 82.412C384.54 82.412 382.714 83.204 381.262 84.788C379.81 86.328 379.084 88.594 379.084 91.586C379.084 94.534 379.788 96.8 381.196 98.384C382.648 99.968 384.452 100.76 386.608 100.76ZM434.307 72.776C438.619 72.776 442.051 74.184 444.603 77C447.199 79.772 448.497 83.6 448.497 88.484V110H437.277V90.002C437.277 87.538 436.639 85.624 435.363 84.26C434.087 82.896 432.371 82.214 430.215 82.214C428.059 82.214 426.343 82.896 425.067 84.26C423.791 85.624 423.153 87.538 423.153 90.002V110H411.867V73.172H423.153V78.056C424.297 76.428 425.837 75.152 427.773 74.228C429.709 73.26 431.887 72.776 434.307 72.776ZM478.78 72.776C483.092 72.776 486.524 74.184 489.076 77C491.672 79.772 492.97 83.6 492.97 88.484V110H481.75V90.002C481.75 87.538 481.112 85.624 479.836 84.26C478.56 82.896 476.844 82.214 474.688 82.214C472.532 82.214 470.816 82.896 469.54 84.26C468.264 85.624 467.626 87.538 467.626 90.002V110H456.34V73.172H467.626V78.056C468.77 76.428 470.31 75.152 472.246 74.228C474.182 73.26 476.36 72.776 478.78 72.776ZM535.529 90.992C535.529 92.048 535.463 93.148 535.331 94.292H509.789C509.965 96.58 510.691 98.34 511.967 99.572C513.287 100.76 514.893 101.354 516.785 101.354C519.601 101.354 521.559 100.166 522.659 97.79H534.671C534.055 100.21 532.933 102.388 531.305 104.324C529.721 106.26 527.719 107.778 525.299 108.878C522.879 109.978 520.173 110.528 517.181 110.528C513.573 110.528 510.361 109.758 507.545 108.218C504.729 106.678 502.529 104.478 500.945 101.618C499.361 98.758 498.569 95.414 498.569 91.586C498.569 87.758 499.339 84.414 500.879 81.554C502.463 78.694 504.663 76.494 507.479 74.954C510.295 73.414 513.529 72.644 517.181 72.644C520.745 72.644 523.913 73.392 526.685 74.888C529.457 76.384 531.613 78.518 533.153 81.29C534.737 84.062 535.529 87.296 535.529 90.992ZM523.979 88.022C523.979 86.086 523.319 84.546 521.999 83.402C520.679 82.258 519.029 81.686 517.049 81.686C515.157 81.686 513.551 82.236 512.231 83.336C510.955 84.436 510.163 85.998 509.855 88.022H523.979ZM539.239 91.586C539.239 87.758 540.009 84.414 541.549 81.554C543.133 78.694 545.311 76.494 548.083 74.954C550.899 73.414 554.111 72.644 557.719 72.644C562.339 72.644 566.189 73.854 569.269 76.274C572.393 78.694 574.439 82.104 575.407 86.504H563.395C562.383 83.688 560.425 82.28 557.521 82.28C555.453 82.28 553.803 83.094 552.571 84.722C551.339 86.306 550.723 88.594 550.723 91.586C550.723 94.578 551.339 96.888 552.571 98.516C553.803 100.1 555.453 100.892 557.521 100.892C560.425 100.892 562.383 99.484 563.395 96.668H575.407C574.439 100.98 572.393 104.368 569.269 106.832C566.145 109.296 562.295 110.528 557.719 110.528C554.111 110.528 550.899 109.758 548.083 108.218C545.311 106.678 543.133 104.478 541.549 101.618C540.009 98.758 539.239 95.414 539.239 91.586ZM601.97 100.43V110H596.228C592.136 110 588.946 109.01 586.658 107.03C584.37 105.006 583.226 101.728 583.226 97.196V82.544H578.738V73.172H583.226V64.196H594.512V73.172H601.904V82.544H594.512V97.328C594.512 98.428 594.776 99.22 595.304 99.704C595.832 100.188 596.712 100.43 597.944 100.43H601.97Z" fill="white"/>
</g>
</g>
<defs>
<filter id="filter0_d_0_1" x="145.092" y="63.14" width="460.878" height="55.388" filterUnits="userSpaceOnUse" color-interpolation-filters="sRGB">
<feFlood flood-opacity="0" result="BackgroundImageFix"/>
<feColorMatrix in="SourceAlpha" type="matrix" values="0 0 0 0 0 0 0 0 0 0 0 0 0 0 0 0 0 0 127 0" result="hardAlpha"/>
<feOffset dy="4"/>
<feGaussianBlur stdDeviation="2"/>
<feComposite in2="hardAlpha" operator="out"/>
<feColorMatrix type="matrix" values="0 0 0 0 0 0 0 0 0 0 0 0 0 0 0 0 0 0 0.25 0"/>
<feBlend mode="normal" in2="BackgroundImageFix" result="effect1_dropShadow_0_1"/>
<feBlend mode="normal" in="SourceGraphic" in2="effect1_dropShadow_0_1" result="shape"/>
</filter>
<clipPath id="clip0_0_1">
<rect width="830.567" height="711.727" fill="white"/>
</clipPath>
</defs>
</svg>
